<svg width="133" height="28" viewBox="0 0 133 28" fill="none" xmlns="http://www.w3.org/2000/svg">
<path d="M0.679825 22.0001V2.12006H8.82782C10.3772 2.12006 11.7958 2.36273 13.0838 2.84806C14.3718 3.31473 15.4825 3.98673 16.4158 4.86406C17.3678 5.7414 18.0958 6.78673 18.5998 8.00006C19.1225 9.2134 19.3838 10.5574 19.3838 12.0321C19.3838 13.5067 19.1225 14.8507 18.5998 16.0641C18.0958 17.2774 17.3678 18.3321 16.4158 19.2281C15.4825 20.1054 14.3625 20.7867 13.0558 21.2721C11.7678 21.7574 10.3398 22.0001 8.77182 22.0001H0.679825ZM5.55183 17.6881H8.51982C9.71449 17.6881 10.7412 17.4641 11.5998 17.0161C12.4772 16.5494 13.1492 15.8961 13.6158 15.0561C14.1012 14.2161 14.3438 13.2174 14.3438 12.0601C14.3438 10.9027 14.1012 9.90406 13.6158 9.06406C13.1492 8.22406 12.4772 7.58006 11.5998 7.13206C10.7412 6.6654 9.71449 6.43206 8.51982 6.43206H5.55183V17.6881Z" fill="#1E1F21"/>
<path d="M21.3327 22.0001V7.07606H25.5327L25.7007 9.45606C26.0553 8.63473 26.55 8.00006 27.1847 7.55206C27.8193 7.10406 28.5567 6.88006 29.3967 6.88006C29.6393 6.88006 29.882 6.89873 30.1247 6.93606C30.3673 6.9734 30.582 7.03873 30.7687 7.13206L30.3207 11.6681C30.1153 11.5934 29.9007 11.5467 29.6767 11.5281C29.4713 11.4907 29.2567 11.4721 29.0327 11.4721C27.9873 11.4721 27.2033 11.7707 26.6807 12.3681C26.158 12.9467 25.8967 13.7961 25.8967 14.9161V22.0001H21.3327Z" fill="#1E1F21"/>
<path d="M38.9875 22.4201C37.8675 22.4201 36.8409 22.2334 35.9075 21.8601C34.9742 21.4681 34.1622 20.9174 33.4715 20.2081C32.7809 19.4987 32.2489 18.6587 31.8755 17.6881C31.5022 16.7174 31.3155 15.6534 31.3155 14.4961C31.3155 13.3761 31.5022 12.3401 31.8755 11.3881C32.2675 10.4361 32.7995 9.6054 33.4715 8.89606C34.1622 8.18673 34.9649 7.63606 35.8795 7.24406C36.7942 6.85206 37.7835 6.65606 38.8475 6.65606C39.9675 6.65606 40.9849 6.85206 41.8995 7.24406C42.8142 7.6174 43.5982 8.15873 44.2515 8.86806C44.9049 9.5774 45.4089 10.4267 45.7635 11.4161C46.1182 12.4054 46.2955 13.5067 46.2955 14.7201V15.7281H35.9915C36.1782 16.6427 36.5329 17.3521 37.0555 17.8561C37.5782 18.3414 38.2409 18.5841 39.0435 18.5841C39.6409 18.5841 40.1635 18.4627 40.6115 18.2201C41.0782 17.9774 41.4889 17.6134 41.8435 17.1281L46.0155 18.2201C45.6609 19.0787 45.1289 19.8254 44.4195 20.4601C43.7289 21.0761 42.9169 21.5614 41.9835 21.9161C41.0502 22.2521 40.0515 22.4201 38.9875 22.4201ZM38.8475 10.0721C38.1009 10.0721 37.4755 10.3147 36.9715 10.8001C36.4862 11.2667 36.1595 11.9387 35.9915 12.8161H41.5915C41.4422 11.9387 41.1249 11.2667 40.6395 10.8001C40.1729 10.3147 39.5755 10.0721 38.8475 10.0721Z" fill="#1E1F21"/>
<path d="M52.4472 22.4201C51.7006 22.4201 51.0099 22.2987 50.3752 22.0561C49.7406 21.8321 49.1899 21.5147 48.7232 21.1041C48.2566 20.6934 47.8926 20.2081 47.6312 19.6481C47.3699 19.0694 47.2392 18.4441 47.2392 17.7721C47.2392 16.8201 47.4912 15.9801 47.9952 15.2521C48.5179 14.5241 49.2366 13.9641 50.1512 13.5721C51.0846 13.1614 52.1672 12.9561 53.3992 12.9561C53.9966 12.9561 54.5379 13.0027 55.0232 13.0961C55.5086 13.1894 56.0032 13.3387 56.5072 13.5441V12.7881C56.5072 12.0601 56.2926 11.4814 55.8632 11.0521C55.4526 10.6041 54.8926 10.3801 54.1832 10.3801C53.6606 10.3801 53.1846 10.5107 52.7552 10.7721C52.3259 11.0147 52.0272 11.3507 51.8592 11.7801L47.7712 11.0801C47.9206 10.4267 48.1912 9.8294 48.5832 9.28806C48.9752 8.74673 49.4606 8.28006 50.0392 7.88806C50.6366 7.49606 51.2899 7.1974 51.9992 6.99206C52.7086 6.76806 53.4646 6.65606 54.2672 6.65606C55.2566 6.65606 56.1526 6.81473 56.9552 7.13206C57.7766 7.43073 58.4859 7.86939 59.0832 8.44806C59.6806 9.00806 60.1379 9.68006 60.4552 10.4641C60.7726 11.2294 60.9312 12.0787 60.9312 13.0121V22.0001H56.8432L56.7312 20.2361C56.3579 20.8894 55.7979 21.4214 55.0512 21.8321C54.3046 22.2241 53.4366 22.4201 52.4472 22.4201ZM51.7192 17.4921C51.7192 17.9401 51.8966 18.3134 52.2512 18.6121C52.6246 18.8921 53.1099 19.0321 53.7072 19.0321C54.2486 19.0321 54.7246 18.9201 55.1352 18.6961C55.5646 18.4721 55.9006 18.1641 56.1432 17.7721C56.3859 17.3801 56.5072 16.9414 56.5072 16.4561V16.3161C56.1712 16.1667 55.8072 16.0547 55.4152 15.9801C55.0232 15.8867 54.6312 15.8401 54.2392 15.8401C53.4552 15.8401 52.8392 15.9894 52.3912 16.2881C51.9432 16.5867 51.7192 16.9881 51.7192 17.4921Z" fill="#1E1F21"/>
<path d="M63.2386 22.0001V7.07606H67.4386L67.5786 9.03606C67.9893 8.30806 68.5586 7.7294 69.2866 7.30006C70.0146 6.87073 70.8359 6.65606 71.7506 6.65606C72.7213 6.65606 73.5799 6.89873 74.3266 7.38406C75.0919 7.85073 75.6893 8.5134 76.1186 9.37206C76.5853 8.5694 77.2386 7.91606 78.0786 7.41206C78.9186 6.90806 79.8799 6.65606 80.9626 6.65606C82.0453 6.65606 82.9879 6.9174 83.7906 7.44006C84.5933 7.96273 85.2093 8.7094 85.6386 9.68006C86.0679 10.6321 86.2826 11.7707 86.2826 13.0961V22.0001H81.7186V13.6561C81.7186 12.7601 81.5226 12.0601 81.1306 11.5561C80.7386 11.0334 80.1973 10.7721 79.5066 10.7721C79.0213 10.7721 78.5919 10.8934 78.2186 11.1361C77.8639 11.3787 77.5746 11.7147 77.3506 12.1441C77.1453 12.5734 77.0426 13.0587 77.0426 13.6001V22.0001H72.4786V13.6561C72.4786 12.7601 72.2826 12.0601 71.8906 11.5561C71.4986 11.0334 70.9573 10.7721 70.2666 10.7721C69.7813 10.7721 69.3519 10.8934 68.9786 11.1361C68.6239 11.3787 68.3346 11.7147 68.1106 12.1441C67.9053 12.5734 67.8026 13.0587 67.8026 13.6001V22.0001H63.2386Z" fill="#1E1F21"/>
<path d="M93.5291 3.15606C93.5291 3.62273 93.4171 4.04273 93.1931 4.41606C92.9878 4.7894 92.6891 5.08806 92.2971 5.31206C91.9238 5.53606 91.4851 5.64806 90.9811 5.64806C90.4958 5.64806 90.0571 5.53606 89.6651 5.31206C89.2918 5.08806 88.9931 4.7894 88.7691 4.41606C88.5638 4.04273 88.4611 3.62273 88.4611 3.15606C88.4611 2.6894 88.5638 2.2694 88.7691 1.89606C88.9931 1.52273 89.2918 1.22406 89.6651 1.00006C90.0571 0.776062 90.4958 0.664062 90.9811 0.664062C91.4851 0.664062 91.9238 0.776062 92.2971 1.00006C92.6891 1.22406 92.9878 1.52273 93.1931 1.89606C93.4171 2.2694 93.5291 2.6894 93.5291 3.15606ZM88.0131 27.7681C86.9305 27.7681 85.9598 27.5254 85.1011 27.0401L85.9131 23.6241C86.0811 23.6987 86.2865 23.7641 86.5291 23.8201C86.7718 23.8947 86.9865 23.9321 87.1731 23.9321C87.6585 23.9321 88.0318 23.7641 88.2931 23.4281C88.5731 23.1107 88.7131 22.6534 88.7131 22.0561V7.07606H93.2771V22.2801C93.2771 23.3814 93.0531 24.3427 92.6051 25.1641C92.1758 25.9854 91.5691 26.6201 90.7851 27.0681C90.0011 27.5347 89.0771 27.7681 88.0131 27.7681Z" fill="#1E1F21"/>
<path d="M116.398 22.0001V1.05606H120.962V8.86806C121.466 8.1774 122.11 7.63606 122.894 7.24406C123.678 6.85206 124.527 6.65606 125.442 6.65606C126.394 6.65606 127.271 6.8614 128.074 7.27206C128.895 7.66406 129.605 8.21473 130.202 8.92406C130.818 9.61473 131.294 10.4361 131.63 11.3881C131.985 12.3401 132.162 13.3574 132.162 14.4401C132.162 15.5601 131.985 16.6054 131.63 17.5761C131.275 18.5467 130.781 19.3961 130.146 20.1241C129.511 20.8521 128.765 21.4214 127.906 21.8321C127.047 22.2241 126.123 22.4201 125.134 22.4201C124.182 22.4201 123.323 22.2241 122.558 21.8321C121.811 21.4214 121.195 20.8521 120.71 20.1241L120.598 22.0001H116.398ZM124.21 18.3041C124.845 18.3041 125.405 18.1454 125.89 17.8281C126.394 17.4921 126.786 17.0441 127.066 16.4841C127.365 15.9054 127.514 15.2614 127.514 14.5521C127.514 13.8241 127.365 13.1801 127.066 12.6201C126.786 12.0414 126.394 11.5934 125.89 11.2761C125.405 10.9401 124.845 10.7721 124.21 10.7721C123.575 10.7721 123.006 10.9401 122.502 11.2761C122.017 11.5934 121.625 12.0414 121.326 12.6201C121.046 13.1801 120.906 13.8241 120.906 14.5521C120.906 15.2614 121.046 15.9054 121.326 16.4841C121.625 17.0441 122.017 17.4921 122.502 17.8281C123.006 18.1454 123.575 18.3041 124.21 18.3041Z" fill="#1E1F21"/>
<path d="M111.5 12.5C111.5 18.0759 108.054 21.5 105 21.5C101.946 21.5 98.4998 18.0759 98.4998 12.5C98.4998 6.92411 101.946 3.5 105 3.5C108.054 3.5 111.5 6.92411 111.5 12.5Z" stroke="#F95611" stroke-width="5"/>
</svg>
