<svg width="530" height="529" viewBox="0 0 530 529" fill="none" xmlns="http://www.w3.org/2000/svg">
<circle cx="16.1304" cy="373.418" r="16.1304" fill="#47A464"/>
<circle cx="86.4131" cy="333.092" r="8.06522" fill="#FBE7ED"/>
<circle cx="368.696" cy="106.114" r="16.1304" fill="#00D9FF"/>
<circle cx="352.565" cy="8.17923" r="8.06522" fill="#FED64A"/>
<circle cx="471.239" cy="414.897" r="10.3696" fill="#516CF5"/>
<circle cx="525.391" cy="452.918" r="4.6087" fill="#D2CEF4"/>
<path opacity="0.8" d="M282.858 528.386C219.489 528.386 130.772 480.571 130.771 398.766C130.771 325.806 175.304 260.667 265.576 255.897C356.526 255.897 424 359.422 424 427.571C424 515.136 339.891 528.386 282.858 528.386Z" fill="#FFCC1E"/>
<path d="M223.554 377.012H227.69C229.659 377.012 231.118 376.519 232.067 375.535C233.016 374.55 233.491 373.243 233.491 371.614C233.491 370.038 233.016 368.812 232.067 367.935C231.136 367.057 229.847 366.619 228.2 366.619C226.714 366.619 225.47 367.03 224.467 367.854C223.465 368.66 222.963 369.716 222.963 371.023H215.202C215.202 368.982 215.748 367.156 216.84 365.544C217.95 363.915 219.49 362.644 221.459 361.731C223.447 360.818 225.631 360.361 228.012 360.361C232.148 360.361 235.389 361.355 237.734 363.342C240.079 365.312 241.252 368.033 241.252 371.506C241.252 373.297 240.706 374.944 239.614 376.448C238.522 377.952 237.089 379.107 235.317 379.912C237.519 380.7 239.157 381.882 240.231 383.457C241.324 385.033 241.87 386.895 241.87 389.043C241.87 392.516 240.598 395.3 238.056 397.395C235.532 399.49 232.184 400.537 228.012 400.537C224.109 400.537 220.913 399.508 218.425 397.449C215.954 395.39 214.719 392.669 214.719 389.285H222.48C222.48 390.753 223.026 391.952 224.118 392.883C225.228 393.814 226.589 394.28 228.2 394.28C230.044 394.28 231.486 393.796 232.524 392.83C233.58 391.845 234.108 390.547 234.108 388.936C234.108 385.033 231.96 383.081 227.663 383.081H223.554V377.012ZM270.202 385.283H274.633V391.541H270.202V400H262.441V391.541H246.408L246.059 386.653L262.36 360.898H270.202V385.283ZM253.793 385.283H262.441V371.48L261.931 372.366L253.793 385.283ZM301.784 385.283H306.215V391.541H301.784V400H294.023V391.541H277.99L277.641 386.653L293.942 360.898H301.784V385.283ZM285.375 385.283H294.023V371.48L293.513 372.366L285.375 385.283ZM321.281 388.345L318.488 391.138V400H310.727V358.75H318.488V381.604L319.992 379.67L327.431 370.942H336.75L326.25 383.054L337.663 400H328.747L321.281 388.345ZM227.648 424.717H222.106V440H219.042V424.717H213.549V422.227H227.648V424.717ZM226.611 433.274C226.611 431.98 226.867 430.816 227.38 429.783C227.893 428.741 228.613 427.944 229.541 427.39C230.468 426.829 231.534 426.548 232.739 426.548C234.521 426.548 235.965 427.122 237.072 428.269C238.187 429.417 238.789 430.938 238.879 432.835L238.891 433.53C238.891 434.832 238.639 435.996 238.134 437.022C237.638 438.047 236.922 438.84 235.986 439.402C235.058 439.963 233.984 440.244 232.763 440.244C230.9 440.244 229.406 439.626 228.283 438.389C227.168 437.144 226.611 435.488 226.611 433.42V433.274ZM229.577 433.53C229.577 434.889 229.858 435.955 230.419 436.729C230.981 437.494 231.762 437.876 232.763 437.876C233.764 437.876 234.541 437.485 235.095 436.704C235.656 435.923 235.937 434.78 235.937 433.274C235.937 431.939 235.648 430.881 235.07 430.1C234.501 429.319 233.723 428.928 232.739 428.928C231.77 428.928 231.001 429.315 230.432 430.088C229.862 430.853 229.577 432 229.577 433.53ZM245.117 423.582V426.792H247.448V428.989H245.117V436.362C245.117 436.867 245.214 437.233 245.41 437.461C245.613 437.681 245.971 437.791 246.484 437.791C246.826 437.791 247.172 437.75 247.521 437.669V439.963C246.846 440.151 246.195 440.244 245.568 440.244C243.29 440.244 242.15 438.987 242.15 436.472V428.989H239.978V426.792H242.15V423.582H245.117ZM257.617 440C257.486 439.748 257.373 439.337 257.275 438.767C256.331 439.752 255.175 440.244 253.808 440.244C252.482 440.244 251.399 439.866 250.561 439.109C249.723 438.352 249.304 437.416 249.304 436.301C249.304 434.893 249.825 433.815 250.866 433.066C251.916 432.31 253.413 431.931 255.358 431.931H257.177V431.065C257.177 430.381 256.986 429.836 256.604 429.429C256.221 429.014 255.639 428.806 254.858 428.806C254.182 428.806 253.629 428.977 253.198 429.319C252.766 429.653 252.551 430.08 252.551 430.601H249.584C249.584 429.876 249.825 429.201 250.305 428.574C250.785 427.94 251.436 427.443 252.258 427.085C253.088 426.727 254.012 426.548 255.029 426.548C256.575 426.548 257.808 426.939 258.728 427.72C259.647 428.493 260.119 429.583 260.144 430.991V436.948C260.144 438.136 260.31 439.085 260.644 439.793V440H257.617ZM254.357 437.864C254.943 437.864 255.493 437.721 256.005 437.437C256.526 437.152 256.917 436.769 257.177 436.289V433.799H255.578C254.479 433.799 253.653 433.99 253.1 434.373C252.547 434.755 252.27 435.296 252.27 435.996C252.27 436.566 252.457 437.022 252.832 437.363C253.214 437.697 253.723 437.864 254.357 437.864ZM266.406 440H263.439V421.25H266.406V440ZM278.967 426.792V441.172C278.967 442.523 278.629 443.552 277.954 444.26C277.286 444.976 276.306 445.335 275.012 445.335C274.466 445.335 273.942 445.265 273.437 445.127V442.783C273.746 442.857 274.096 442.893 274.487 442.893C275.472 442.893 275.976 442.356 276 441.282V426.792H278.967ZM275.744 423.362C275.744 422.906 275.887 422.528 276.171 422.227C276.464 421.926 276.879 421.775 277.417 421.775C277.954 421.775 278.369 421.926 278.662 422.227C278.955 422.528 279.101 422.906 279.101 423.362C279.101 423.809 278.955 424.184 278.662 424.485C278.369 424.778 277.954 424.924 277.417 424.924C276.879 424.924 276.464 424.778 276.171 424.485C275.887 424.184 275.744 423.809 275.744 423.362ZM281.591 433.274C281.591 431.98 281.848 430.816 282.36 429.783C282.873 428.741 283.593 427.944 284.521 427.39C285.449 426.829 286.515 426.548 287.719 426.548C289.501 426.548 290.946 427.122 292.053 428.269C293.168 429.417 293.77 430.938 293.859 432.835L293.872 433.53C293.872 434.832 293.619 435.996 293.115 437.022C292.618 438.047 291.902 438.84 290.966 439.402C290.039 439.963 288.964 440.244 287.744 440.244C285.88 440.244 284.387 439.626 283.264 438.389C282.149 437.144 281.591 435.488 281.591 433.42V433.274ZM284.558 433.53C284.558 434.889 284.838 435.955 285.4 436.729C285.961 437.494 286.743 437.876 287.744 437.876C288.745 437.876 289.522 437.485 290.075 436.704C290.637 435.923 290.917 434.78 290.917 433.274C290.917 431.939 290.629 430.881 290.051 430.1C289.481 429.319 288.704 428.928 287.719 428.928C286.751 428.928 285.982 429.315 285.412 430.088C284.842 430.853 284.558 432 284.558 433.53ZM307.971 433.53C307.971 435.581 307.511 437.213 306.591 438.425C305.68 439.638 304.423 440.244 302.819 440.244C301.273 440.244 300.069 439.687 299.206 438.572L299.06 440H296.374V421.25H299.34V428.062C300.195 427.052 301.346 426.548 302.795 426.548C304.406 426.548 305.672 427.146 306.591 428.342C307.511 429.539 307.971 431.211 307.971 433.359V433.53ZM305.004 433.274C305.004 431.842 304.752 430.767 304.248 430.051C303.743 429.335 303.011 428.977 302.05 428.977C300.764 428.977 299.861 429.539 299.34 430.662V436.106C299.869 437.253 300.781 437.827 302.075 437.827C303.002 437.827 303.719 437.481 304.223 436.79C304.728 436.098 304.988 435.052 305.004 433.652V433.274ZM317.871 436.411C317.871 435.882 317.651 435.479 317.211 435.203C316.78 434.926 316.06 434.682 315.051 434.47C314.042 434.259 313.199 433.99 312.524 433.665C311.043 432.948 310.302 431.911 310.302 430.552C310.302 429.412 310.782 428.46 311.743 427.695C312.703 426.93 313.924 426.548 315.405 426.548C316.984 426.548 318.257 426.939 319.226 427.72C320.202 428.501 320.69 429.514 320.69 430.759H317.724C317.724 430.19 317.513 429.718 317.089 429.343C316.666 428.961 316.105 428.77 315.405 428.77C314.754 428.77 314.221 428.92 313.806 429.221C313.399 429.522 313.195 429.925 313.195 430.43C313.195 430.885 313.387 431.239 313.769 431.492C314.152 431.744 314.925 432 316.088 432.261C317.252 432.513 318.164 432.818 318.823 433.176C319.49 433.526 319.982 433.949 320.3 434.446C320.625 434.942 320.788 435.544 320.788 436.253C320.788 437.441 320.296 438.405 319.311 439.146C318.326 439.878 317.036 440.244 315.441 440.244C314.359 440.244 313.395 440.049 312.548 439.658C311.702 439.268 311.043 438.731 310.571 438.047C310.099 437.363 309.863 436.627 309.863 435.837H312.744C312.784 436.537 313.049 437.079 313.537 437.461C314.025 437.835 314.672 438.023 315.478 438.023C316.259 438.023 316.853 437.876 317.26 437.583C317.667 437.282 317.871 436.891 317.871 436.411Z" fill="white"/>
<path d="M420.531 193.679C369.358 195.47 307.059 225.94 308.783 276.636C310.411 324.528 346.228 369.962 402.576 372.266C481.032 372.266 500.928 315.81 494.282 276.636C484.119 216.723 467.782 193.679 420.531 193.679Z" fill="#FBE7ED"/>
<path d="M397.713 248.496V254.887H396.961C393.452 254.941 390.624 255.854 388.475 257.626C386.345 259.399 385.064 261.861 384.635 265.012C386.712 262.899 389.334 261.843 392.503 261.843C395.905 261.843 398.609 263.06 400.614 265.495C402.619 267.93 403.622 271.135 403.622 275.109C403.622 277.652 403.067 279.952 401.957 282.011C400.864 284.07 399.307 285.673 397.284 286.818C395.278 287.964 393.005 288.537 390.462 288.537C386.345 288.537 383.014 287.105 380.472 284.24C377.948 281.376 376.686 277.553 376.686 272.773V269.98C376.686 265.737 377.482 261.995 379.076 258.754C380.687 255.496 382.988 252.98 385.978 251.208C388.985 249.418 392.468 248.514 396.424 248.496H397.713ZM390.14 268.073C388.887 268.073 387.75 268.404 386.729 269.067C385.709 269.711 384.957 270.571 384.474 271.645V274.008C384.474 276.604 384.984 278.636 386.004 280.104C387.025 281.555 388.457 282.28 390.301 282.28C391.966 282.28 393.309 281.626 394.33 280.319C395.368 278.994 395.887 277.285 395.887 275.19C395.887 273.059 395.368 271.341 394.33 270.034C393.291 268.727 391.895 268.073 390.14 268.073ZM419.117 276.345L416.324 279.138V288H408.563V246.75H416.324V269.604L417.828 267.67L425.267 258.942H434.586L424.085 271.054L435.499 288H426.583L419.117 276.345ZM389.991 319.577C389.991 321.319 389.69 322.849 389.088 324.167C388.486 325.477 387.623 326.486 386.5 327.194C385.385 327.894 384.099 328.244 382.643 328.244C381.202 328.244 379.916 327.894 378.785 327.194C377.662 326.486 376.791 325.481 376.173 324.179C375.562 322.877 375.253 321.376 375.245 319.675V318.674C375.245 316.94 375.55 315.41 376.161 314.084C376.779 312.757 377.646 311.744 378.761 311.044C379.884 310.336 381.17 309.982 382.618 309.982C384.067 309.982 385.348 310.332 386.463 311.032C387.586 311.724 388.453 312.725 389.063 314.035C389.674 315.337 389.983 316.855 389.991 318.588V319.577ZM386.903 318.649C386.903 316.68 386.528 315.17 385.78 314.121C385.039 313.071 383.985 312.546 382.618 312.546C381.284 312.546 380.238 313.071 379.481 314.121C378.732 315.162 378.35 316.639 378.333 318.552V319.577C378.333 321.53 378.712 323.04 379.469 324.106C380.234 325.172 381.292 325.705 382.643 325.705C384.01 325.705 385.06 325.184 385.792 324.143C386.533 323.101 386.903 321.579 386.903 319.577V318.649ZM393.824 328V316.989H391.81V314.792H393.824V313.583C393.824 312.119 394.231 310.987 395.045 310.19C395.859 309.392 396.998 308.994 398.463 308.994C398.984 308.994 399.537 309.067 400.123 309.213L400.05 311.533C399.724 311.468 399.346 311.435 398.915 311.435C397.499 311.435 396.791 312.163 396.791 313.62V314.792H401.332V313.889C401.34 312.855 401.559 311.968 401.991 311.228C402.422 310.487 403.032 309.93 403.822 309.555C404.611 309.181 405.559 308.994 406.666 308.994C407.317 308.994 407.94 309.063 408.534 309.201C409.136 309.34 409.758 309.514 410.401 309.726L409.938 312.18C408.831 311.789 407.809 311.594 406.874 311.594C405.97 311.594 405.315 311.793 404.908 312.192C404.501 312.583 404.298 313.173 404.298 313.962V314.792H406.898V316.989H404.298V328H401.332V316.989H396.791V328H393.824ZM411.805 328H408.839V314.792H411.805V328ZM420.521 325.876C421.262 325.876 421.876 325.66 422.364 325.229C422.853 324.798 423.113 324.265 423.146 323.63H425.941C425.908 324.452 425.652 325.221 425.172 325.937C424.692 326.645 424.041 327.207 423.219 327.622C422.397 328.037 421.51 328.244 420.558 328.244C418.71 328.244 417.245 327.646 416.163 326.45C415.081 325.253 414.54 323.601 414.54 321.494V321.188C414.54 319.178 415.077 317.571 416.151 316.367C417.225 315.154 418.69 314.548 420.545 314.548C422.116 314.548 423.394 315.008 424.378 315.927C425.371 316.839 425.892 318.039 425.941 319.528H423.146C423.113 318.771 422.853 318.149 422.364 317.661C421.884 317.172 421.27 316.928 420.521 316.928C419.561 316.928 418.82 317.278 418.299 317.978C417.778 318.67 417.514 319.724 417.506 321.14V321.616C417.506 323.048 417.762 324.118 418.275 324.826C418.796 325.526 419.544 325.876 420.521 325.876ZM433.998 328.244C432.118 328.244 430.592 327.654 429.42 326.474C428.256 325.286 427.674 323.707 427.674 321.738V321.372C427.674 320.053 427.927 318.877 428.431 317.844C428.944 316.802 429.66 315.992 430.58 315.415C431.499 314.837 432.525 314.548 433.656 314.548C435.454 314.548 436.842 315.122 437.818 316.269C438.803 317.417 439.295 319.04 439.295 321.14V322.336H430.665C430.755 323.426 431.117 324.289 431.751 324.924C432.394 325.559 433.2 325.876 434.168 325.876C435.528 325.876 436.634 325.327 437.489 324.228L439.088 325.754C438.559 326.543 437.851 327.158 436.964 327.597C436.085 328.028 435.096 328.244 433.998 328.244ZM433.644 316.928C432.83 316.928 432.171 317.213 431.666 317.783C431.17 318.352 430.852 319.146 430.714 320.163H436.366V319.943C436.301 318.951 436.036 318.202 435.572 317.697C435.108 317.185 434.465 316.928 433.644 316.928ZM449.012 324.411C449.012 323.882 448.792 323.479 448.353 323.203C447.922 322.926 447.201 322.682 446.192 322.47C445.183 322.259 444.341 321.99 443.666 321.665C442.184 320.948 441.444 319.911 441.444 318.552C441.444 317.412 441.924 316.46 442.884 315.695C443.845 314.93 445.065 314.548 446.546 314.548C448.125 314.548 449.399 314.938 450.367 315.72C451.344 316.501 451.832 317.514 451.832 318.759H448.866C448.866 318.19 448.654 317.718 448.231 317.343C447.808 316.961 447.246 316.77 446.546 316.77C445.895 316.77 445.362 316.92 444.947 317.221C444.54 317.522 444.337 317.925 444.337 318.43C444.337 318.885 444.528 319.239 444.911 319.492C445.293 319.744 446.066 320 447.23 320.261C448.394 320.513 449.305 320.818 449.964 321.176C450.632 321.526 451.124 321.949 451.441 322.446C451.767 322.942 451.93 323.544 451.93 324.252C451.93 325.441 451.437 326.405 450.453 327.146C449.468 327.878 448.178 328.244 446.583 328.244C445.501 328.244 444.536 328.049 443.69 327.658C442.844 327.268 442.184 326.73 441.712 326.047C441.24 325.363 441.004 324.627 441.004 323.837H443.885C443.926 324.537 444.19 325.078 444.679 325.461C445.167 325.835 445.814 326.022 446.62 326.022C447.401 326.022 447.995 325.876 448.402 325.583C448.809 325.282 449.012 324.891 449.012 324.411Z" fill="#516CF5"/>
<path d="M201.373 78.0001C135.699 80.3044 52.7425 118.326 55.047 186.304C57.1366 247.946 101.71 303.826 178.33 307.859C255.525 307.859 300.46 244.489 300.46 186.88C300.46 107.957 267.047 78.0001 201.373 78.0001Z" fill="#D2CEF4"/>
<path d="M156.511 195H148.75V165.083L139.485 167.957V161.646L155.679 155.845H156.511V195ZM170.396 175.772L172.651 155.898H194.565V162.371H179.016L178.049 170.776C179.893 169.792 181.854 169.299 183.931 169.299C187.655 169.299 190.573 170.454 192.686 172.764C194.798 175.073 195.854 178.305 195.854 182.459C195.854 184.983 195.317 187.248 194.243 189.253C193.187 191.24 191.665 192.789 189.678 193.899C187.69 194.991 185.345 195.537 182.642 195.537C180.278 195.537 178.085 195.063 176.062 194.114C174.039 193.147 172.437 191.795 171.255 190.059C170.091 188.322 169.473 186.344 169.402 184.124H177.083C177.244 185.753 177.808 187.024 178.774 187.937C179.759 188.832 181.039 189.28 182.615 189.28C184.369 189.28 185.721 188.653 186.67 187.4C187.619 186.129 188.093 184.338 188.093 182.029C188.093 179.809 187.547 178.108 186.455 176.926C185.363 175.745 183.814 175.154 181.809 175.154C179.965 175.154 178.47 175.637 177.324 176.604L176.572 177.302L170.396 175.772ZM211.699 183.345L208.906 186.138V195H201.145V153.75H208.906V176.604L210.41 174.67L217.849 165.942H227.168L216.667 178.054L228.081 195H219.165L211.699 183.345ZM150.991 226.577C150.991 228.319 150.69 229.849 150.088 231.167C149.486 232.477 148.623 233.486 147.5 234.194C146.385 234.894 145.099 235.244 143.643 235.244C142.202 235.244 140.916 234.894 139.785 234.194C138.662 233.486 137.791 232.481 137.173 231.179C136.562 229.877 136.253 228.376 136.245 226.675V225.674C136.245 223.94 136.55 222.411 137.161 221.084C137.779 219.758 138.646 218.744 139.761 218.044C140.884 217.336 142.17 216.982 143.618 216.982C145.067 216.982 146.348 217.332 147.463 218.032C148.586 218.724 149.453 219.725 150.063 221.035C150.674 222.337 150.983 223.855 150.991 225.588V226.577ZM147.903 225.649C147.903 223.68 147.528 222.17 146.78 221.121C146.039 220.071 144.985 219.546 143.618 219.546C142.284 219.546 141.238 220.071 140.481 221.121C139.732 222.162 139.35 223.639 139.333 225.552V226.577C139.333 228.53 139.712 230.04 140.469 231.106C141.234 232.172 142.292 232.705 143.643 232.705C145.01 232.705 146.06 232.184 146.792 231.143C147.533 230.101 147.903 228.579 147.903 226.577V225.649ZM156.533 221.792L156.619 223.318C157.595 222.138 158.877 221.548 160.464 221.548C163.215 221.548 164.614 223.123 164.663 226.272V235H161.697V226.443C161.697 225.605 161.514 224.986 161.147 224.587C160.789 224.181 160.199 223.977 159.377 223.977C158.181 223.977 157.29 224.518 156.704 225.601V235H153.738V221.792H156.533ZM167.178 228.298C167.178 226.248 167.658 224.612 168.618 223.391C169.587 222.162 170.868 221.548 172.463 221.548C173.969 221.548 175.153 222.073 176.016 223.123L176.15 221.792H178.823V234.597C178.823 236.331 178.282 237.698 177.2 238.699C176.125 239.7 174.673 240.2 172.842 240.2C171.873 240.2 170.925 239.997 169.998 239.59C169.078 239.191 168.378 238.666 167.898 238.015L169.302 236.233C170.213 237.315 171.336 237.857 172.671 237.857C173.656 237.857 174.433 237.588 175.002 237.051C175.572 236.522 175.857 235.741 175.857 234.707V233.816C175.002 234.768 173.863 235.244 172.439 235.244C170.893 235.244 169.627 234.63 168.643 233.401C167.666 232.172 167.178 230.471 167.178 228.298ZM170.132 228.555C170.132 229.881 170.4 230.927 170.938 231.692C171.483 232.449 172.236 232.827 173.196 232.827C174.392 232.827 175.279 232.315 175.857 231.289V225.479C175.295 224.478 174.417 223.977 173.22 223.977C172.244 223.977 171.483 224.364 170.938 225.137C170.4 225.91 170.132 227.049 170.132 228.555ZM181.326 228.274C181.326 226.98 181.582 225.816 182.095 224.783C182.607 223.741 183.328 222.944 184.255 222.39C185.183 221.829 186.249 221.548 187.454 221.548C189.236 221.548 190.68 222.122 191.787 223.269C192.902 224.417 193.504 225.938 193.594 227.835L193.606 228.53C193.606 229.832 193.354 230.996 192.849 232.022C192.353 233.047 191.637 233.84 190.701 234.402C189.773 234.963 188.699 235.244 187.478 235.244C185.614 235.244 184.121 234.626 182.998 233.389C181.883 232.144 181.326 230.488 181.326 228.42V228.274ZM184.292 228.53C184.292 229.889 184.573 230.955 185.134 231.729C185.696 232.494 186.477 232.876 187.478 232.876C188.479 232.876 189.256 232.485 189.81 231.704C190.371 230.923 190.652 229.78 190.652 228.274C190.652 226.939 190.363 225.881 189.785 225.1C189.215 224.319 188.438 223.928 187.454 223.928C186.485 223.928 185.716 224.315 185.146 225.088C184.577 225.853 184.292 227 184.292 228.53ZM199.27 235H196.304V221.792H199.27V235ZM196.121 218.362C196.121 217.906 196.263 217.528 196.548 217.227C196.841 216.926 197.256 216.775 197.793 216.775C198.33 216.775 198.745 216.926 199.038 217.227C199.331 217.528 199.478 217.906 199.478 218.362C199.478 218.809 199.331 219.184 199.038 219.485C198.745 219.778 198.33 219.924 197.793 219.924C197.256 219.924 196.841 219.778 196.548 219.485C196.263 219.184 196.121 218.809 196.121 218.362ZM205.264 221.792L205.349 223.318C206.326 222.138 207.607 221.548 209.194 221.548C211.945 221.548 213.345 223.123 213.394 226.272V235H210.427V226.443C210.427 225.605 210.244 224.986 209.878 224.587C209.52 224.181 208.93 223.977 208.108 223.977C206.912 223.977 206.021 224.518 205.435 225.601V235H202.468V221.792H205.264ZM215.908 228.298C215.908 226.248 216.388 224.612 217.349 223.391C218.317 222.162 219.599 221.548 221.194 221.548C222.699 221.548 223.883 222.073 224.746 223.123L224.88 221.792H227.554V234.597C227.554 236.331 227.013 237.698 225.93 238.699C224.856 239.7 223.403 240.2 221.572 240.2C220.604 240.2 219.656 239.997 218.728 239.59C217.808 239.191 217.109 238.666 216.628 238.015L218.032 236.233C218.944 237.315 220.067 237.857 221.401 237.857C222.386 237.857 223.163 237.588 223.733 237.051C224.303 236.522 224.587 235.741 224.587 234.707V233.816C223.733 234.768 222.594 235.244 221.169 235.244C219.623 235.244 218.358 234.63 217.373 233.401C216.396 232.172 215.908 230.471 215.908 228.298ZM218.862 228.555C218.862 229.881 219.131 230.927 219.668 231.692C220.213 232.449 220.966 232.827 221.926 232.827C223.123 232.827 224.01 232.315 224.587 231.289V225.479C224.026 224.478 223.147 223.977 221.951 223.977C220.974 223.977 220.213 224.364 219.668 225.137C219.131 225.91 218.862 227.049 218.862 228.555Z" fill="white"/>
</svg>
